<svg width="36" height="32" viewBox="0 0 36 32" fill="none" xmlns="http://www.w3.org/2000/svg">
<path d="M10.75 14.25H10.7675M17.75 14.25H17.7675M24.75 14.25H24.7675M33.5 30L27.6825 27.0911C27.2415 26.8706 27.021 26.7604 26.7898 26.6827C26.5847 26.6138 26.3735 26.5639 26.1591 26.5338C25.9176 26.5 25.671 26.5 25.1781 26.5H7.6C5.63981 26.5 4.65972 26.5 3.91104 26.1185C3.25246 25.783 2.71703 25.2475 2.38148 24.589C2 23.8404 2 22.8602 2 20.9V7.6C2 5.63981 2 4.65972 2.38148 3.91104C2.71703 3.25246 3.25246 2.71703 3.91104 2.38148C4.65972 2 5.63982 2 7.6 2H27.9C29.8602 2 30.8404 2 31.589 2.38148C32.2475 2.71703 32.783 3.25246 33.1185 3.91104C33.5 4.65972 33.5 5.63982 33.5 7.6V30Z" stroke="#A87DE7" stroke-width="4" stroke-linecap="round" stroke-linejoin="round"/>
</svg>
