<svg width="37" height="38" viewBox="0 0 37 38" fill="none" xmlns="http://www.w3.org/2000/svg">
<g opacity="0.5">
<path d="M2.26876 18.5674L2.31329 29.4952C2.32262 31.784 2.32728 32.9291 2.77628 33.8016C3.1712 34.5689 3.79848 35.191 4.56905 35.5796C5.44419 36.0211 6.58804 36.0164 8.87234 36.0071L28.5011 35.9271C30.7854 35.9178 31.9276 35.9132 32.7992 35.4646C33.5665 35.0697 34.1908 34.4425 34.5794 33.672C35.0209 32.7967 35.0162 31.6534 35.0069 29.3691L34.9624 18.4341C34.9579 17.3424 34.9547 16.7962 34.82 16.2886C34.7004 15.8389 34.5056 15.4136 34.2427 15.0296C33.9459 14.5963 33.5345 14.2377 32.7097 13.5221L22.8667 4.98C21.3357 3.65132 20.5702 2.98731 19.7107 2.73694C18.9534 2.51634 18.1471 2.51963 17.3915 2.74639C16.5348 3.00357 15.7757 3.67316 14.258 5.01224L4.48162 13.6371C3.66286 14.3595 3.25443 14.7214 2.96126 15.1571C2.70146 15.5432 2.50859 15.9701 2.39277 16.4207C2.26209 16.9294 2.26431 17.4756 2.26876 18.5674Z" stroke="#7720F5" stroke-width="4" stroke-linecap="round" stroke-linejoin="round"/>
<path d="M9.75222 20.0155L9.74259 17.6525L20.4318 17.609L20.4421 20.1337L20.4438 20.5437L20.4462 21.1337L20.4478 21.5437L20.4651 25.7734L20.4668 26.1833L20.4692 26.7734L20.4708 27.1833L20.4811 29.7081L9.7919 29.7516L9.78227 27.3887C10.4193 27.2131 11.0058 26.8735 11.4793 26.3962L10.7977 25.7201L11.4793 26.3962C12.1927 25.6769 12.5912 24.7037 12.5871 23.6906C12.5829 22.6775 12.1765 21.7076 11.4573 20.9941C10.9799 20.5206 10.3907 20.1859 9.75222 20.0155ZM23.852 20.1198L23.8417 17.5951L27.4814 17.5802L27.491 19.9432C26.8539 20.1188 26.2675 20.4584 25.794 20.9357C25.0806 21.655 24.6821 22.6282 24.6862 23.6413C24.6903 24.6544 25.0967 25.6243 25.816 26.3377C26.2934 26.8112 26.8826 27.146 27.521 27.3164L27.5307 29.6794L23.891 29.6942L23.8807 27.1694L23.8791 26.7595L23.8766 26.1694L23.875 25.7595L23.8577 21.5298L23.8561 21.1198L23.8537 20.5298L23.852 20.1198Z" stroke="#7720F5" stroke-width="2"/>
</g>
</svg>
