<svg width="30" height="38" viewBox="0 0 30 38" fill="none" xmlns="http://www.w3.org/2000/svg">
<path d="M14.9209 1C7.24504 1 1 7.24587 1 14.9231C1 20.4087 3.29661 25.9575 7.64139 30.97C10.8866 34.7138 14.1027 36.8349 14.238 36.9234C14.4455 37.059 14.6831 37.1267 14.9209 37.1267C15.1585 37.1267 15.3963 37.059 15.6038 36.9234C15.7391 36.8349 18.9555 34.7138 22.2009 30.9702C26.5462 25.9577 28.843 20.4088 28.843 14.9232C28.843 7.24587 22.5976 1 14.9209 1ZM14.9209 34.3462C12.3606 32.4383 3.49595 25.0956 3.49595 14.9231C3.49595 8.62214 8.6213 3.49595 14.9209 3.49595C21.2214 3.49595 26.347 8.62214 26.347 14.9231C26.347 25.0956 17.4818 32.4383 14.9209 34.3462Z" fill="#A87DE7" stroke="#A87DE7"/>
<circle cx="15.0247" cy="14.4184" r="4.69312" stroke="#A87DE7" stroke-width="3"/>
</svg>
