<svg width="685" height="480" viewBox="0 0 685 480" fill="none" xmlns="http://www.w3.org/2000/svg">
<g clip-path="url(#clip0_2_31)">
<path d="M478.858 203.425C470.297 200.661 463.137 191.624 454.015 172.937C451.917 168.334 448.388 161.923 444.625 155L390.65 180.76C393.413 188.159 395.943 195.047 398.04 199.65C406.163 218.814 408.825 229.998 404.892 238.725C400.412 250.085 400.516 262.799 405.181 274.081L461.113 396.838C465.774 407.068 479.43 413.005 498.422 403.941L542.402 382.952C561.393 373.889 565.728 359.366 561.067 349.136L505.136 226.379C499.69 215.469 490.24 207.215 478.858 203.425Z" fill="#BB711A"/>
<path d="M419.891 92.7022L415.23 82.4725C413.994 79.7594 411.756 77.6599 409.007 76.6361C406.258 75.6122 403.225 75.7478 400.574 77.0129L360.592 96.0938C357.941 97.3589 355.89 99.65 354.89 102.463C353.889 105.276 354.022 108.381 355.258 111.094L359.919 121.324L419.891 92.7022Z" fill="#F0C695"/>
<path d="M369.914 116.553C372.377 125.964 382.628 157.812 390.883 181.271L444.859 155.512C432.605 133.961 415.357 105.452 409.896 97.4725" fill="#E28F2E"/>
<path opacity="0.25" d="M486.101 384.913L430.17 262.155C425.507 252.083 423.184 241.044 423.383 229.9C423.818 222.842 420.157 212.136 412.034 192.972C409.936 188.369 407.407 181.481 404.144 174.32L390.65 180.76C393.413 188.159 395.943 195.047 398.04 199.65C406.163 218.814 408.825 229.998 404.892 238.725C400.412 250.085 400.516 262.799 405.181 274.081L461.113 396.838C465.774 407.068 479.43 413.005 498.422 403.941L509.417 398.694C499.921 403.226 490.762 395.142 486.101 384.913Z" fill="#101129"/>
<path opacity="0.5" d="M478.858 203.425C470.297 200.661 463.137 191.624 454.015 172.937C451.917 168.334 448.388 161.923 444.625 155L431.132 161.44C434.894 168.363 437.924 175.012 440.021 179.615C448.644 198.54 454.804 208.055 460.366 212.25C468.835 219.257 475.606 228.174 480.147 238.304L536.078 361.062C540.739 371.291 540.902 383.668 531.407 388.199L542.402 382.952C561.393 373.889 565.728 359.366 561.067 349.136L505.136 226.379C499.69 215.469 490.24 207.215 478.858 203.425Z" fill="white"/>
<path opacity="0.25" d="M370.251 103.938C367.687 98.3121 367.589 92.7546 370.588 91.3236L360.592 96.0938C357.941 97.3589 355.89 99.65 354.89 102.463C353.889 105.276 354.022 108.381 355.258 111.094L359.919 121.324L374.912 114.168L370.251 103.938Z" fill="#101129"/>
<path opacity="0.5" d="M400.237 89.6278L404.898 99.8576L419.891 92.7022L415.23 82.4725C413.994 79.7594 411.756 77.6599 409.007 76.6361C406.258 75.6122 403.225 75.7478 400.574 77.0129L390.579 81.7831C393.577 80.3521 397.674 84.0014 400.237 89.6278ZM399.901 102.243C404.362 110.699 420.111 139.923 431.365 161.952L444.859 155.512C432.605 133.96 415.357 105.452 409.896 97.4725L399.901 102.243Z" fill="white"/>
<path opacity="0.25" d="M379.91 111.783L369.914 116.553C372.377 125.964 382.628 157.812 390.883 181.271L404.377 174.831C395.122 151.849 383.372 120.717 379.91 111.783Z" fill="#101129"/>
<path d="M487.785 321.838C504.346 313.935 509.424 289.207 499.128 266.608C488.831 244.009 467.058 232.096 450.497 240C433.936 247.904 428.858 272.631 439.155 295.23C449.452 317.829 471.224 329.742 487.785 321.838Z" fill="#F9E6D0"/>
<path d="M487.785 321.838C504.346 313.935 509.424 289.207 499.128 266.608C488.831 244.009 467.058 232.096 450.497 240C433.936 247.904 428.858 272.631 439.155 295.23C449.452 317.829 471.224 329.742 487.785 321.838Z" stroke="#875112" stroke-linejoin="round"/>
<path d="M369.914 116.553C372.377 125.964 382.628 157.812 390.883 181.271L444.859 155.512C432.605 133.96 415.357 105.452 409.896 97.4725M419.891 92.7022L415.23 82.4725C413.994 79.7594 411.756 77.6599 409.007 76.6361C406.258 75.6122 403.225 75.7478 400.574 77.0129L360.592 96.0938C357.941 97.3589 355.89 99.65 354.89 102.463C353.889 105.276 354.022 108.381 355.258 111.094L359.919 121.324L419.891 92.7022Z" stroke="#875112" stroke-linejoin="round"/>
<path d="M478.858 203.425C470.297 200.661 463.137 191.624 454.015 172.937C451.917 168.334 448.388 161.923 444.625 155L390.65 180.76C393.413 188.159 395.943 195.047 398.04 199.65C406.163 218.814 408.825 229.998 404.892 238.725C400.412 250.085 400.516 262.799 405.181 274.081L461.113 396.838C465.774 407.068 479.43 413.005 498.422 403.941L542.402 382.952C561.393 373.889 565.728 359.366 561.067 349.136L505.136 226.379C499.69 215.469 490.24 207.215 478.858 203.425Z" stroke="#875112" stroke-linejoin="round"/>
</g>
<g clip-path="url(#clip1_2_31)">
<path d="M280.108 238.725C276.675 230.236 278.837 218.814 286.96 199.65C289.057 195.047 291.587 188.159 294.35 180.76L240.374 155C236.612 161.923 233.083 168.334 230.985 172.937C221.863 191.624 215.203 200.899 206.142 203.425C194.76 207.215 185.31 215.469 179.864 226.379L123.933 349.136C119.272 359.366 123.607 373.889 142.598 382.952L186.578 403.941C205.569 413.005 219.226 407.068 223.887 396.838L279.819 274.081C284.484 262.799 284.588 250.085 280.108 238.725Z" fill="#BB711A"/>
<path d="M325.081 121.324L329.742 111.094C330.978 108.381 331.111 105.276 330.11 102.463C329.11 99.65 327.059 97.3589 324.408 96.0938L284.426 77.0129C281.775 75.7478 278.741 75.6122 275.993 76.6361C273.244 77.6599 271.006 79.7593 269.769 82.4725L265.109 92.7022L325.081 121.324Z" fill="#F0C695"/>
<path d="M275.104 97.4725C269.643 105.452 252.395 133.96 240.141 155.512L294.117 181.271C302.372 157.812 312.623 125.964 315.086 116.553" fill="#E28F2E"/>
<path opacity="0.25" d="M148.921 361.062L204.853 238.304C209.394 228.174 216.164 219.257 224.634 212.25C230.196 208.055 235.856 198.302 244.979 179.615C247.076 175.012 250.606 168.601 253.868 161.44L240.374 155C236.612 161.923 233.083 168.334 230.985 172.937C221.863 191.624 215.203 200.899 206.142 203.425C194.76 207.215 185.31 215.469 179.864 226.379L123.933 349.136C119.272 359.366 123.607 373.889 142.598 382.952L153.593 388.199C144.097 383.668 144.26 371.291 148.921 361.062Z" fill="#101129"/>
<path opacity="0.5" d="M280.108 238.725C276.675 230.236 278.837 218.814 286.96 199.65C289.057 195.047 291.587 188.159 294.35 180.76L280.856 174.32C278.093 181.719 275.064 188.369 272.966 192.972C264.343 211.897 261.182 222.842 261.617 229.9C261.816 241.044 259.493 252.083 254.83 262.155L198.899 384.913C194.238 395.142 185.079 403.226 175.583 398.694L186.578 403.941C205.569 413.005 219.226 407.068 223.887 396.838L279.819 274.081C284.484 262.799 284.588 250.085 280.108 238.725Z" fill="white"/>
<path opacity="0.25" d="M284.763 89.6278C287.326 84.0014 291.423 80.3521 294.421 81.7831L284.426 77.0129C281.775 75.7478 278.741 75.6122 275.993 76.6361C273.244 77.6599 271.006 79.7593 269.769 82.4725L265.109 92.7022L280.102 99.8576L284.763 89.6278Z" fill="#101129"/>
<path opacity="0.5" d="M314.749 103.938L310.088 114.168L325.081 121.324L329.742 111.094C330.978 108.381 331.111 105.276 330.11 102.463C329.11 99.65 327.059 97.3589 324.408 96.0938L314.412 91.3236C317.411 92.7546 317.313 98.3121 314.749 103.938ZM305.09 111.783C301.628 120.717 289.878 151.849 280.623 174.831L294.117 181.271C302.372 157.812 312.623 125.964 315.086 116.553L305.09 111.783Z" fill="white"/>
<path opacity="0.25" d="M285.099 102.243L275.104 97.4725C269.643 105.452 252.395 133.96 240.141 155.512L253.635 161.952C264.889 139.923 280.638 110.699 285.099 102.243Z" fill="#101129"/>
<path d="M197.215 321.838C213.776 329.742 235.548 317.829 245.845 295.23C256.142 272.631 251.063 247.904 234.502 240C217.941 232.096 196.169 244.009 185.872 266.608C175.576 289.207 180.654 313.935 197.215 321.838Z" fill="#F9E6D0"/>
<path d="M197.215 321.838C213.776 329.742 235.548 317.829 245.845 295.23C256.142 272.631 251.063 247.904 234.502 240C217.941 232.096 196.169 244.009 185.872 266.608C175.576 289.207 180.654 313.935 197.215 321.838Z" stroke="#875112" stroke-linejoin="round"/>
<path d="M275.104 97.4725C269.643 105.452 252.395 133.96 240.141 155.512L294.117 181.271C302.372 157.812 312.623 125.964 315.086 116.553M325.081 121.324L329.742 111.094C330.978 108.381 331.111 105.276 330.11 102.463C329.11 99.65 327.059 97.3589 324.408 96.0938L284.426 77.0129C281.775 75.7478 278.741 75.6122 275.993 76.6361C273.244 77.6599 271.006 79.7593 269.769 82.4725L265.109 92.7022L325.081 121.324Z" stroke="#875112" stroke-linejoin="round"/>
<path d="M280.108 238.725C276.675 230.236 278.837 218.814 286.96 199.65C289.057 195.047 291.587 188.159 294.35 180.76L240.374 155C236.612 161.923 233.083 168.334 230.985 172.937C221.863 191.624 215.203 200.899 206.142 203.425C194.76 207.215 185.31 215.469 179.864 226.379L123.933 349.136C119.272 359.366 123.607 373.889 142.598 382.952L186.578 403.941C205.569 413.005 219.226 407.068 223.887 396.838L279.819 274.081C284.484 262.799 284.588 250.085 280.108 238.725Z" stroke="#875112" stroke-linejoin="round"/>
</g>
<rect x="338.5" y="9.5" width="12" height="47" rx="6" fill="#FFF737" stroke="black"/>
<rect x="381.064" y="21.3085" width="12" height="47" rx="6" transform="rotate(35 381.064 21.3085)" fill="#FFF737" stroke="black"/>
<rect x="298.64" y="28.6898" width="12" height="47" rx="6" transform="rotate(-35 298.64 28.6898)" fill="#FFF737" stroke="black"/>
<defs>
<clipPath id="clip0_2_31">
<rect width="354.412" height="359.73" fill="white" transform="matrix(0.902493 -0.430705 0.414618 0.909996 215.995 152.647)"/>
</clipPath>
<clipPath id="clip1_2_31">
<rect width="354.412" height="359.73" fill="white" transform="matrix(0.902493 0.430705 -0.414618 0.909996 149.151 0)"/>
</clipPath>
</defs>
</svg>
