<svg width="30" height="30" viewBox="0 0 30 30" fill="none" xmlns="http://www.w3.org/2000/svg">
<path d="M26.8998 21.3752C26.7181 21.7143 26.6737 22.1103 26.7757 22.4813L27.1553 23.8616L28.291 28.3548L23.8569 27.1662L22.4663 26.7838C22.0959 26.6819 21.7005 26.726 21.3617 26.9071C18.5061 28.4328 15.1973 28.8814 12.0385 28.1711C8.87972 27.4609 6.0814 25.6391 4.15371 23.0379C2.22603 20.4367 1.29737 17.2293 1.53707 14.0005C1.77676 10.7718 3.16884 7.73671 5.45949 5.44866C7.75014 3.1606 10.7868 1.77197 14.0158 1.53594C17.2448 1.29991 20.4512 2.2322 23.0502 4.16284C25.6492 6.09347 27.4678 8.89386 28.1745 12.0534C28.8811 15.213 28.4288 18.5213 26.8998 21.3752Z" stroke="#3D107C" stroke-width="3" stroke-linecap="round" stroke-linejoin="round"/>
<circle cx="8" cy="15" r="2" fill="#3D107C"/>
<circle cx="15" cy="15" r="2" fill="#3D107C"/>
<circle cx="22" cy="15" r="2" fill="#3D107C"/>
</svg>
