<svg width="30" height="30" viewBox="0 0 30 30" fill="none" xmlns="http://www.w3.org/2000/svg">
<rect width="30" height="30" rx="15" fill="#4A1696"/>
<g clip-path="url(#clip0_21_2)">
<path d="M24.9075 13.4623L24.7927 13.0248H15.3037V16.9747H20.9792C20.6625 18.18 19.9426 19.2463 18.9344 20.0032C17.9263 20.76 16.6882 21.1636 15.4185 21.1495C13.7614 21.1361 12.1694 20.5164 10.9545 19.4121C10.3573 18.8352 9.88207 18.1485 9.55598 17.3914C9.2299 16.6343 9.05937 15.8216 9.05418 14.9998C9.07345 13.3492 9.74025 11.7692 10.9163 10.5875C12.114 9.47545 13.7048 8.86165 15.3547 8.87503C16.7677 8.88569 18.1282 9.40124 19.1809 10.325L21.9868 7.50008C20.1374 5.88309 17.7438 4.99278 15.2654 5.00018C13.902 4.99224 12.5504 5.24756 11.2878 5.75156C10.0251 6.25555 8.87606 6.99836 7.90632 7.93756C6.06169 9.81534 5.0217 12.3146 5.00034 14.9211C4.97899 17.5277 5.97791 20.0429 7.79153 21.9495C8.79635 22.9306 9.99061 23.7057 11.3045 24.2293C12.6184 24.753 14.0256 25.0147 15.444 24.9994C16.7301 25.0087 18.0048 24.7621 19.191 24.2744C20.377 23.7867 21.4496 23.0681 22.3439 22.162C24.0987 20.2709 25.048 17.793 24.9967 15.2372C25.0105 14.6443 24.9807 14.0512 24.9075 13.4623Z" fill="white"/>
</g>
<defs>
<clipPath id="clip0_21_2">
<rect width="20" height="20" fill="white" transform="translate(5 5)"/>
</clipPath>
</defs>
</svg>
