<svg width="30" height="30" viewBox="0 0 30 30" fill="none" xmlns="http://www.w3.org/2000/svg">
<circle cx="15" cy="15" r="13.5" stroke="#3D107C" stroke-width="3"/>
<path d="M11.4407 13.2144H9.12711V12.0856L15.2542 7.9165L21.3813 12.0856V13.2144H19.0678H19.0424H17.5678H17.5424H12.9661H12.9407H11.4661H11.4407ZM19.0678 17.5427H21.3813V19.8559H19.4997C19.2565 19.2804 18.8773 18.7648 18.3966 18.3462L17.4115 19.4774L18.3966 18.3462C18.0019 18.0025 17.5511 17.7335 17.0688 17.5427H17.5424H17.5678H19.0424H19.0678ZM12.1119 18.3462C11.6312 18.7648 11.252 19.2804 11.0087 19.8559H9.12711V17.5427H11.4407H11.4661H12.9407H12.9661H13.4396C12.9573 17.7335 12.5066 18.0025 12.1119 18.3462Z" fill="#3D107C" stroke="#3D107C" stroke-width="3"/>
</svg>
