<svg width="29" height="32" viewBox="0 0 29 32" fill="none" xmlns="http://www.w3.org/2000/svg">
<path d="M14.4994 1C7.05596 1 1 6.18663 1 12.5619C1 17.1172 3.22707 21.725 7.44031 25.8874C10.5873 28.9963 13.706 30.7576 13.8372 30.8311C14.0384 30.9438 14.2689 31 14.4994 31C14.7299 31 14.9604 30.9438 15.1617 30.8311C15.2928 30.7576 18.4119 28.9963 21.559 25.8876C25.7728 21.7251 28 17.1173 28 12.562C28 6.18663 21.9437 1 14.4994 1ZM14.4994 28.6911C12.0166 27.1067 3.42038 21.0092 3.42038 12.5619C3.42038 7.3295 8.39055 3.07266 14.4994 3.07266C20.6091 3.07266 25.5796 7.3295 25.5796 12.5619C25.5796 21.0092 16.9827 27.1067 14.4994 28.6911Z" fill="#3D107C" stroke="#3D107C"/>
<circle cx="14.7" cy="14" r="3.5" fill="#3D107C" stroke="#3D107C" stroke-width="3"/>
</svg>
